<svg width="25" height="26" viewBox="0 0 25 26" fill="none" xmlns="http://www.w3.org/2000/svg">
<path d="M14.1829 0.649794C19.1305 3.83581 22.4003 6.04517 23.9923 7.2779C25.3606 8.33755 24.8133 18.7963 24.8026 20.8838C24.7865 23.8932 23.8152 25.4085 20.6974 25.4085C14.8268 25.405 8.95618 25.4067 3.08556 25.4138C1.1108 25.4138 0.0107324 23.6177 0.0053662 21.6944C-0.00178873 17.3675 -0.00178873 13.0424 0.0053662 8.71902C0.0053662 8.16447 0.411408 7.60109 1.22349 7.02888C6.0173 3.65213 9.32824 1.43747 11.1563 0.384882C12.0829 -0.141411 13.0917 -0.0531065 14.1829 0.649794ZM22.3609 8.87267L13.2116 2.81148C13.0006 2.67207 12.7537 2.59502 12.4999 2.58939C12.2461 2.58376 11.9959 2.64978 11.7788 2.77969C9.26027 4.27379 6.71848 5.90565 4.15344 7.67527C2.87092 8.56007 2.14648 8.85678 2.13575 10.3085C2.12144 14.1833 2.13396 18.0581 2.17331 21.9328C2.18404 22.9289 2.81725 23.4217 3.8261 23.4217C9.71103 23.4252 15.4725 23.4234 21.1106 23.4164C21.297 23.4167 21.4816 23.3808 21.654 23.3107C21.8263 23.2406 21.983 23.1377 22.115 23.0078C22.2471 22.8779 22.3519 22.7236 22.4236 22.5537C22.4952 22.3838 22.5323 22.2016 22.5327 22.0176C22.5398 17.779 22.5416 13.5351 22.538 9.28593C22.5467 9.20785 22.535 9.12887 22.504 9.05653C22.473 8.98419 22.4237 8.92089 22.3609 8.87267Z" fill="white"/>
<path d="M15.3201 11.7276L14.5151 11.0866C14.467 11.0486 14.4277 11.0008 14.3999 10.9465C14.3722 10.8922 14.3565 10.8326 14.3542 10.7718C14.352 10.7115 14.3633 10.6515 14.3873 10.596C14.4113 10.5405 14.4475 10.4909 14.4931 10.4508L15.4698 9.58716C15.5023 9.55057 15.5423 9.52126 15.5872 9.50117C15.6321 9.48109 15.6808 9.4707 15.73 9.4707C15.7793 9.4707 15.828 9.48109 15.8729 9.50117C15.9178 9.52126 15.9578 9.55057 15.9903 9.58716L18.9632 12.2681C19.1258 12.4154 19.2397 12.6077 19.2901 12.8198C19.3404 13.032 19.3249 13.2542 19.2454 13.4575C19.1661 13.6606 19.0261 13.835 18.844 13.9575C18.6619 14.0801 18.4463 14.145 18.2259 14.1436L5.92922 14.1383C5.84658 14.1385 5.76565 14.115 5.69616 14.0709C5.62668 14.0267 5.57158 13.9637 5.53749 13.8893C5.42319 13.6668 5.36096 13.4218 5.35539 13.1724C5.34982 12.923 5.40105 12.6755 5.50529 12.4482C5.54176 12.3596 5.60528 12.2844 5.68704 12.2332C5.76879 12.1819 5.8647 12.1571 5.96142 12.1621H15.1644C15.2158 12.1625 15.266 12.1471 15.3081 12.118C15.3502 12.0888 15.382 12.0475 15.3991 11.9997C15.4163 11.9518 15.4179 11.8999 15.4037 11.8512C15.3895 11.8024 15.3603 11.7592 15.3201 11.7276Z" fill="white"/>
<path d="M9.36442 17.498L9.83664 17.9696C9.87491 17.9966 9.90591 18.0325 9.92694 18.0741C9.94798 18.1157 9.95843 18.1617 9.95737 18.2082C9.95631 18.2546 9.94378 18.3001 9.92088 18.3407C9.89797 18.3813 9.86537 18.4158 9.82591 18.4411L8.97805 19.2041C8.8905 19.2815 8.77734 19.3248 8.65978 19.3258C8.54221 19.3268 8.42833 19.2854 8.33947 19.2094C7.40218 18.4111 6.49529 17.5828 5.61881 16.7245C5.49524 16.6039 5.41272 16.4484 5.3827 16.2794C5.15732 15.0608 6.05347 14.8012 7.08378 14.8118C10.9117 14.8472 14.6859 14.9037 18.4065 14.9814C18.4992 14.9834 18.5907 15.0036 18.6756 15.0407C18.7604 15.0779 18.837 15.1312 18.9008 15.1977C18.9647 15.2642 19.0146 15.3425 19.0476 15.4282C19.0806 15.5138 19.0962 15.605 19.0933 15.6966C19.0719 16.5196 18.7875 16.9382 18.2401 16.9523C15.4676 17.0265 12.568 17.0671 9.5415 17.0742C9.13367 17.0742 9.07464 17.2155 9.36442 17.498Z" fill="white"/>
</svg>
