<svg width="99" height="20" viewBox="0 0 99 20" fill="none" xmlns="http://www.w3.org/2000/svg">
<path d="M53.568 15.2559C53.3587 16.2202 51.4805 16.003 50.7453 15.9076C50.665 15.8967 50.5913 15.8575 50.538 15.7971C50.4848 15.7367 50.4555 15.6592 50.4556 15.5791L50.5092 1.11493C50.5 1.0506 50.5065 0.985011 50.5282 0.92367C50.5499 0.862329 50.5862 0.807024 50.634 0.762393C50.6819 0.717761 50.7398 0.685105 50.8031 0.667164C50.8663 0.649223 50.933 0.64652 50.9976 0.659281L53.4231 0.765246C53.5009 0.767992 53.5746 0.80046 53.6287 0.855807C53.6827 0.911155 53.7129 0.98506 53.7129 1.06195V5.47009C53.7129 5.71381 53.8184 5.77032 54.0295 5.63963C59.6586 2.14809 64.9658 8.92455 61.3275 13.9155C59.8214 15.9783 57.5694 16.5381 54.5714 15.595C54.4953 15.5737 54.4261 15.5332 54.3706 15.4774C54.3151 15.4217 54.2752 15.3527 54.2548 15.2771C54.2496 15.2318 54.2348 15.1881 54.2116 15.1487C54.1883 15.1093 54.1571 15.0751 54.1198 15.0482C54.0825 15.0213 54.0399 15.0023 53.9948 14.9925C53.9497 14.9827 53.903 14.9822 53.8577 14.991C53.7865 14.9972 53.7194 15.0265 53.6669 15.0745C53.6144 15.1224 53.5796 15.1863 53.568 15.2559ZM56.4067 13.3486C57.1682 13.3111 57.8837 12.9773 58.3966 12.4203C58.9095 11.8633 59.178 11.1283 59.1434 10.3763C59.1797 9.99985 59.1359 9.62012 59.0148 9.2614C58.8938 8.90267 58.6982 8.57288 58.4405 8.29315C58.1829 8.01342 57.8688 7.78992 57.5186 7.63699C57.1684 7.48406 56.7896 7.40506 56.4067 7.40506C56.0237 7.40506 55.645 7.48406 55.2948 7.63699C54.9445 7.78992 54.6305 8.01342 54.3729 8.29315C54.1152 8.57288 53.9196 8.90267 53.7985 9.2614C53.6775 9.62012 53.6337 9.99985 53.6699 10.3763C53.6353 11.1283 53.9039 11.8633 54.4168 12.4203C54.9297 12.9773 55.6452 13.3111 56.4067 13.3486Z" fill="white"/>
<path d="M2.98052 14.6262L3.05028 18.6581C3.05763 18.6996 3.05484 18.7423 3.04215 18.7825C3.02947 18.8227 3.00725 18.8593 2.97734 18.8894C2.94744 18.9194 2.9107 18.942 2.87019 18.9552C2.82968 18.9685 2.78656 18.9719 2.74441 18.9654H0.399385C0.351588 18.9718 0.302945 18.9671 0.257308 18.9517C0.211671 18.9363 0.170294 18.9106 0.136451 18.8767C0.102608 18.8427 0.0772317 18.8015 0.0623276 18.7562C0.0474235 18.7109 0.0434009 18.6628 0.0505817 18.6157V5.09991C0.0505817 4.86326 0.170426 4.75553 0.410116 4.77672L2.56733 4.95156C2.63037 4.95447 2.69085 4.97707 2.74004 5.01612C2.78923 5.05516 2.82458 5.10862 2.841 5.16879L2.92686 5.4284C3.00915 5.68978 3.16119 5.73923 3.38299 5.57675C8.50234 1.85739 14.0081 8.82458 10.2249 13.6089C8.57926 15.6893 6.23065 15.986 3.17908 14.499C3.04313 14.4319 2.97695 14.4743 2.98052 14.6262ZM5.69367 12.883C6.41861 12.8417 7.09744 12.5186 7.58159 11.9842C8.06575 11.4499 8.31578 10.748 8.27696 10.032C8.30638 9.67313 8.2597 9.31211 8.1399 8.972C8.0201 8.63189 7.82981 8.32018 7.58117 8.05674C7.33253 7.79331 7.031 7.58394 6.69583 7.44199C6.36065 7.30005 5.99919 7.22865 5.6345 7.23235C5.26981 7.23604 4.90991 7.31476 4.57776 7.46347C4.2456 7.61218 3.94849 7.82761 3.70539 8.09603C3.46228 8.36445 3.27851 8.67996 3.16581 9.02243C3.0531 9.36489 3.01395 9.72679 3.05082 10.085C3.0272 10.8016 3.29209 11.4983 3.78751 12.0225C4.28294 12.5467 4.96853 12.8557 5.69421 12.882L5.69367 12.883Z" fill="white"/>
<path d="M17.383 5.97954C18.2989 5.15269 19.4957 4.69516 20.7368 4.69736C20.7693 4.6918 20.8027 4.69393 20.8342 4.70359C20.8657 4.71325 20.8944 4.73016 20.918 4.75292C20.9416 4.77569 20.9593 4.80366 20.9698 4.83453C20.9803 4.8654 20.9832 4.89828 20.9783 4.93048V7.45245C20.9786 7.49698 20.9692 7.54104 20.9507 7.58164C20.9321 7.62224 20.905 7.65841 20.871 7.68769C20.8367 7.71736 20.7965 7.73957 20.7529 7.7529C20.7094 7.76622 20.6635 7.77036 20.6182 7.76505C16.0731 7.19284 17.3932 13.0845 17.3395 15.6488C17.3438 15.6858 17.3396 15.7233 17.327 15.7584C17.3144 15.7935 17.2939 15.8253 17.267 15.8514C17.2401 15.8775 17.2074 15.8971 17.1717 15.9088C17.1359 15.9206 17.0978 15.9241 17.0605 15.919H14.3403C14.2944 15.9255 14.2476 15.9213 14.2036 15.9068C14.1596 15.8923 14.1196 15.8679 14.0868 15.8356C14.054 15.8032 14.0293 15.7637 14.0146 15.7203C13.9999 15.6768 13.9957 15.6306 14.0023 15.5853V5.1901C13.9971 5.15411 14.0004 5.11743 14.0121 5.08295C14.0237 5.04846 14.0433 5.01713 14.0693 4.99143C14.0954 4.96573 14.1271 4.94636 14.162 4.93486C14.197 4.92336 14.2341 4.92005 14.2706 4.92519H16.7229C16.8136 4.92514 16.9007 4.95997 16.9658 5.02228C17.031 5.08459 17.0689 5.16949 17.0717 5.25897L17.0932 5.86298C17.1039 6.10316 17.2005 6.14202 17.383 5.97954Z" fill="white"/>
<path d="M34.125 10.3972C34.125 13.5459 31.3646 16.0981 27.9592 16.0981C24.5538 16.0981 21.7935 13.5459 21.7935 10.3972C21.7935 7.24846 24.5538 4.69629 27.9592 4.69629C31.3646 4.69629 34.125 7.24846 34.125 10.3972ZM28.0284 13.3849C28.794 13.3332 29.5078 12.9843 30.0136 12.4145C30.5194 11.8447 30.7761 11.1004 30.7276 10.3442C30.7599 9.96477 30.7114 9.58285 30.585 9.22308C30.4587 8.8633 30.2575 8.53364 29.9942 8.25535C29.731 7.97705 29.4116 7.7563 29.0567 7.60731C28.7018 7.45832 28.3192 7.3844 27.9336 7.39031C27.5479 7.39623 27.1678 7.48184 26.8178 7.64164C26.4677 7.80144 26.1555 8.03188 25.9011 8.31811C25.6467 8.60434 25.4559 8.94001 25.341 9.30349C25.2261 9.66697 25.1895 10.0502 25.2337 10.4285C25.2092 11.186 25.4895 11.9223 26.0134 12.4763C26.5372 13.0303 27.2613 13.357 28.0284 13.3849Z" fill="white"/>
<path d="M39.4908 15.2823V19.558C39.4973 19.6034 39.4931 19.6496 39.4784 19.693C39.4637 19.7365 39.439 19.7759 39.4062 19.8083C39.3734 19.8407 39.3334 19.8651 39.2894 19.8796C39.2454 19.8941 39.1986 19.8983 39.1527 19.8918H36.475C36.4306 19.8918 36.3866 19.8832 36.3456 19.8664C36.3046 19.8496 36.2673 19.825 36.2359 19.794C36.2045 19.763 36.1796 19.7262 36.1626 19.6858C36.1456 19.6453 36.1369 19.6018 36.1369 19.558V5.18917C36.1317 5.15319 36.1351 5.1165 36.1467 5.08202C36.1583 5.04754 36.178 5.0162 36.204 4.9905C36.23 4.9648 36.2618 4.94543 36.2967 4.93394C36.3316 4.92244 36.3688 4.91913 36.4052 4.92426H38.9542C39.091 4.9232 39.2234 4.97207 39.326 5.06149C39.4113 5.14414 39.4124 5.23633 39.3298 5.28984C39.2841 5.3211 39.2487 5.36478 39.2277 5.41558C39.2068 5.46637 39.2012 5.52209 39.2117 5.57594C39.2439 5.80553 39.3584 5.85675 39.5552 5.72959C45.2111 1.98903 51.0979 9.07809 46.9015 14.1697C45.1306 16.3208 42.7159 16.6563 39.6571 15.1764C39.5462 15.1234 39.4908 15.1587 39.4908 15.2823ZM42.1846 13.3909C42.9483 13.3457 43.663 13.0043 44.1727 12.4409C44.6824 11.8775 44.9457 11.1379 44.9053 10.3836C44.9427 10.0052 44.8993 9.62327 44.7779 9.2625C44.6564 8.90173 44.4596 8.57015 44.2002 8.2892C43.9408 8.00825 43.6245 7.78419 43.2719 7.63152C42.9193 7.47885 42.5381 7.40097 42.153 7.40291C41.768 7.40484 41.3876 7.48656 41.0366 7.64277C40.6856 7.79899 40.3716 8.02622 40.1151 8.30976C39.8586 8.59331 39.6653 8.92685 39.5475 9.28883C39.4298 9.6508 39.3904 10.0331 39.4317 10.4111C39.3991 11.1661 39.6703 11.9033 40.1862 12.4615C40.702 13.0198 41.4201 13.3539 42.1846 13.3909Z" fill="white"/>
<path d="M70.8955 15.0385C65.744 18.6625 60.3134 11.8754 66.184 9.66603C66.8566 9.41525 68.3555 9.29163 70.6809 9.29516C70.9134 9.29516 70.9957 9.18389 70.9277 8.96137C70.1818 6.47649 67.1392 7.22884 65.4703 8.20372C65.439 8.22193 65.4041 8.23351 65.368 8.23774C65.3319 8.24198 65.2953 8.23876 65.2605 8.2283C65.2257 8.21785 65.1934 8.20038 65.1658 8.17699C65.1382 8.15361 65.1158 8.12482 65.1001 8.09246L64.2093 6.25926C64.1903 6.23014 64.1782 6.19723 64.1737 6.16291C64.1691 6.12859 64.1724 6.09371 64.1832 6.06077C64.194 6.02784 64.212 5.99768 64.236 5.97245C64.26 5.94722 64.2893 5.92756 64.322 5.91488C68.0354 3.89095 74.1045 3.93863 74.2226 9.4806C74.2619 11.4833 74.3228 13.4896 74.405 15.4994C74.4148 15.5509 74.412 15.6039 74.3968 15.6541C74.3816 15.7043 74.3546 15.7503 74.3179 15.7881C74.2811 15.8259 74.2358 15.8545 74.1857 15.8716C74.1355 15.8886 74.0819 15.8936 74.0294 15.8862L71.781 15.9127C71.6926 15.9128 71.6064 15.8852 71.535 15.8337C71.4636 15.7823 71.4107 15.7097 71.3839 15.6266L71.2283 15.1497C71.171 14.959 71.0601 14.9219 70.8955 15.0385ZM70.5628 11.2714L67.048 11.6423C66.9933 11.6489 66.9435 11.6766 66.9094 11.7192C66.8752 11.7619 66.8595 11.8161 66.8655 11.8701L66.9192 12.4052C66.9442 12.6181 67.0142 12.8234 67.1245 13.008C67.2349 13.1925 67.3832 13.3521 67.5599 13.4765C67.9369 13.7433 68.401 13.8619 68.8618 13.8093L69.2535 13.7669C69.7147 13.7213 70.1422 13.5079 70.4528 13.1682C70.5986 13.0094 70.7091 12.8223 70.777 12.6187C70.8449 12.4152 70.8689 12.1999 70.8472 11.9867L70.7936 11.4568C70.7909 11.4297 70.7828 11.4033 70.7697 11.3792C70.7566 11.3551 70.7389 11.3338 70.7174 11.3166C70.6959 11.2993 70.6712 11.2865 70.6447 11.2787C70.6182 11.271 70.5903 11.2685 70.5628 11.2714Z" fill="white"/>
<path d="M84.5834 10.0903C84.9889 10.2873 85.341 10.577 85.6105 10.9352C85.88 11.2934 86.0592 11.7099 86.1331 12.1502C86.2071 12.5904 86.1737 13.0417 86.0358 13.4667C85.8979 13.8916 85.6594 14.278 85.34 14.5938C83.2526 16.7449 78.8362 16.2415 76.3731 15.0759C76.3285 15.0617 76.2877 15.0378 76.2537 15.006C76.2196 14.9743 76.1931 14.9354 76.1762 14.8923C76.1592 14.8492 76.1522 14.8029 76.1556 14.7567C76.1591 14.7106 76.1729 14.6658 76.196 14.6256L76.9365 12.856C76.9544 12.8133 76.981 12.7748 77.0147 12.7428C77.0484 12.7108 77.0884 12.686 77.1323 12.6701C77.1762 12.6542 77.2229 12.6474 77.2696 12.6502C77.3163 12.653 77.3618 12.6653 77.4034 12.6864C78.9134 13.4646 80.6443 13.7202 82.3188 13.4123C82.4843 13.3808 82.6338 13.2942 82.7423 13.1669C82.8508 13.0396 82.9118 12.8794 82.9149 12.713C82.9181 12.5467 82.8632 12.3843 82.7596 12.2531C82.656 12.1219 82.5098 12.0299 82.3457 11.9923C80.1241 11.5102 74.9564 11.1022 76.5019 7.26101C77.7951 4.03968 82.8984 4.34168 85.4634 5.57087C85.5381 5.60707 85.5961 5.66974 85.6259 5.74636C85.6558 5.82297 85.6552 5.90789 85.6244 5.98413L84.9107 7.70606C84.8945 7.74511 84.8704 7.78047 84.8398 7.80999C84.8093 7.83951 84.773 7.86256 84.7331 7.87773C84.6928 7.8931 84.6497 7.90036 84.6065 7.89909C84.5633 7.89781 84.5208 7.88803 84.4814 7.87031C83.1061 7.23039 81.5542 7.06076 80.0704 7.38817C79.9216 7.41993 79.7861 7.49591 79.6823 7.6059C79.5785 7.71589 79.5112 7.85463 79.4896 8.00346C79.468 8.15229 79.493 8.30409 79.5614 8.43846C79.6297 8.57283 79.738 8.68333 79.8719 8.75512C81.2617 9.50217 83.0003 9.27964 84.5834 10.0903Z" fill="white"/>
<path d="M90.6804 11.4095C90.651 11.4092 90.622 11.4169 90.5967 11.4318C90.5713 11.4467 90.5506 11.4681 90.5368 11.4938C90.5229 11.5195 90.5165 11.5484 90.5182 11.5775C90.5199 11.6065 90.5296 11.6345 90.5463 11.6585C92.0703 13.7425 93.9753 14.0321 96.2613 12.5274C96.2891 12.505 96.3213 12.4884 96.3558 12.4787C96.3903 12.4689 96.4265 12.4662 96.4621 12.4706C96.4978 12.4751 96.5321 12.4866 96.5631 12.5046C96.594 12.5226 96.621 12.5466 96.6423 12.5751L97.8765 13.9315C98.177 14.26 98.1359 14.5372 97.7531 14.7633C93.605 17.2376 87.8471 16.0508 87.2085 10.8744C86.2962 3.50451 99.1429 1.93093 98.998 10.9115C98.9945 11.0466 98.9375 11.175 98.8392 11.2691C98.7408 11.3632 98.6091 11.4155 98.4721 11.4148L90.6804 11.4095ZM90.6053 9.2849L95.7247 9.31139C95.738 9.31146 95.7509 9.30661 95.7608 9.29779C95.7707 9.28897 95.777 9.27682 95.7783 9.26371V9.21602C95.7706 8.95054 95.6996 8.69059 95.5711 8.45724C95.4426 8.22389 95.2603 8.02371 95.0389 7.87292C94.5137 7.49996 93.8816 7.30228 93.2347 7.30865H93.1167C91.707 7.30124 90.5591 8.14048 90.5516 9.18423V9.23192C90.5516 9.24597 90.5573 9.25945 90.5674 9.26938C90.5774 9.27932 90.5911 9.2849 90.6053 9.2849Z" fill="white"/>
</svg>
