<svg width="13" height="14" viewBox="0 0 13 14" fill="none" xmlns="http://www.w3.org/2000/svg">
<path d="M7.4332 0.414147C9.9983 2.06594 11.6935 3.21139 12.5189 3.85049C13.2283 4.39987 12.9446 9.82221 12.939 10.9045C12.9306 12.4647 12.4271 13.2503 10.8107 13.2503C7.76705 13.2485 4.72342 13.2494 1.67979 13.2531C0.655975 13.2531 0.0856423 12.3219 0.0828602 11.3248C0.0791508 9.08147 0.0791508 6.8391 0.0828602 4.59765C0.0828602 4.31014 0.293373 4.01805 0.714399 3.72139C3.19975 1.97071 4.91632 0.822516 5.86409 0.276802C6.34447 0.0039456 6.8675 0.049727 7.4332 0.414147ZM11.6731 4.67731L6.92964 1.53487C6.82025 1.4626 6.69224 1.42265 6.56066 1.41973C6.42907 1.41681 6.29938 1.45104 6.18681 1.51839C4.88107 2.29301 3.56328 3.13905 2.23343 4.05651C1.56851 4.51524 1.19292 4.66907 1.18736 5.42171C1.17994 7.4306 1.18643 9.43948 1.20683 11.4484C1.2124 11.9648 1.54069 12.2202 2.06372 12.2202C5.11477 12.2221 8.10183 12.2212 11.0249 12.2175C11.1215 12.2177 11.2173 12.1991 11.3066 12.1627C11.396 12.1264 11.4772 12.073 11.5456 12.0057C11.6141 11.9383 11.6685 11.8583 11.7056 11.7703C11.7428 11.6822 11.762 11.5877 11.7622 11.4923C11.7659 9.29481 11.7668 7.09456 11.7649 4.89156C11.7694 4.85108 11.7634 4.81014 11.7473 4.77263C11.7312 4.73512 11.7057 4.70231 11.6731 4.67731Z" fill="white"/>
<path d="M8.02188 6.1584L7.60456 5.82602C7.57961 5.80633 7.55923 5.78157 7.54483 5.75342C7.53043 5.72526 7.52234 5.69438 7.5211 5.66286C7.51996 5.63159 7.52583 5.60045 7.53829 5.57168C7.55074 5.5429 7.56948 5.5172 7.59316 5.4964L8.0995 5.04866C8.11634 5.02969 8.13709 5.01449 8.16036 5.00408C8.18363 4.99367 8.20888 4.98828 8.23443 4.98828C8.25998 4.98828 8.28523 4.99367 8.3085 5.00408C8.33177 5.01449 8.35252 5.02969 8.36936 5.04866L9.91065 6.43858C9.99497 6.51496 10.054 6.61464 10.0801 6.72464C10.1062 6.83463 10.0982 6.94985 10.057 7.05525C10.0159 7.16052 9.94328 7.25093 9.84886 7.31447C9.75443 7.37801 9.64266 7.41167 9.52839 7.41097L3.15318 7.40823C3.11034 7.40829 3.06838 7.39615 3.03236 7.37324C2.99633 7.35034 2.96776 7.31766 2.95009 7.27912C2.89083 7.16376 2.85857 7.03674 2.85568 6.90742C2.85279 6.77811 2.87935 6.6498 2.9334 6.53197C2.9523 6.48604 2.98524 6.44707 3.02762 6.42049C3.07001 6.3939 3.11973 6.38102 3.16988 6.38364H7.9412C7.96783 6.38385 7.99387 6.37585 8.01568 6.36075C8.03749 6.34565 8.05399 6.32421 8.06287 6.29942C8.07175 6.27462 8.07258 6.24771 8.06523 6.22243C8.05788 6.19715 8.04273 6.17477 8.02188 6.1584Z" fill="white"/>
<path d="M4.93601 9.15064L5.18084 9.39511C5.20067 9.40914 5.21675 9.42774 5.22765 9.4493C5.23856 9.47085 5.24397 9.49471 5.24343 9.5188C5.24288 9.54289 5.23638 9.56648 5.22451 9.58753C5.21263 9.60858 5.19573 9.62645 5.17527 9.63958L4.7357 10.0351C4.69031 10.0753 4.63164 10.0977 4.57069 10.0982C4.50974 10.0988 4.45069 10.0773 4.40463 10.0379C3.91869 9.62402 3.44851 9.19459 2.9941 8.7496C2.93003 8.68709 2.88725 8.60645 2.87168 8.51886C2.75484 7.88708 3.21945 7.75248 3.75361 7.75797C5.73819 7.77628 7.69494 7.80558 9.62387 7.84587C9.67197 7.84694 9.71939 7.8574 9.76338 7.87665C9.80737 7.8959 9.84706 7.92356 9.88017 7.95804C9.91328 7.99251 9.93914 8.03312 9.95627 8.07751C9.9734 8.12191 9.98146 8.16921 9.97998 8.2167C9.96885 8.64338 9.8214 8.86039 9.53762 8.86771C8.1002 8.90617 6.59693 8.92723 5.02782 8.93089C4.81638 8.93089 4.78578 9.00414 4.93601 9.15064Z" fill="white"/>
</svg>
